<?xml version="1.0" standalone="no"?>
<svg xmlns:xlink="http://www.w3.org/1999/xlink" id="wave" style="transform:rotate(180deg); transition: 0.3s" viewBox="0 0 1440 310" version="1.1" xmlns="http://www.w3.org/2000/svg"><defs><linearGradient id="sw-gradient-0" x1="0" x2="0" y1="1" y2="0"><stop stop-color="rgba(224, 232, 255, 1)" offset="0%"/><stop stop-color="rgba(224, 232, 255, 1)" offset="100%"/></linearGradient></defs><path style="transform:translate(0, 0px); opacity:1" fill="url(#sw-gradient-0)" d="M0,279L26.7,248C53.3,217,107,155,160,113.7C213.3,72,267,52,320,67.2C373.3,83,427,134,480,165.3C533.3,196,587,207,640,186C693.3,165,747,114,800,77.5C853.3,41,907,21,960,10.3C1013.3,0,1067,0,1120,5.2C1173.3,10,1227,21,1280,62C1333.3,103,1387,176,1440,211.8C1493.3,248,1547,248,1600,206.7C1653.3,165,1707,83,1760,72.3C1813.3,62,1867,124,1920,129.2C1973.3,134,2027,83,2080,67.2C2133.3,52,2187,72,2240,67.2C2293.3,62,2347,31,2400,62C2453.3,93,2507,186,2560,232.5C2613.3,279,2667,279,2720,242.8C2773.3,207,2827,134,2880,108.5C2933.3,83,2987,103,3040,134.3C3093.3,165,3147,207,3200,217C3253.3,227,3307,207,3360,170.5C3413.3,134,3467,83,3520,62C3573.3,41,3627,52,3680,62C3733.3,72,3787,83,3813,87.8L3840,93L3840,310L3813.3,310C3786.7,310,3733,310,3680,310C3626.7,310,3573,310,3520,310C3466.7,310,3413,310,3360,310C3306.7,310,3253,310,3200,310C3146.7,310,3093,310,3040,310C2986.7,310,2933,310,2880,310C2826.7,310,2773,310,2720,310C2666.7,310,2613,310,2560,310C2506.7,310,2453,310,2400,310C2346.7,310,2293,310,2240,310C2186.7,310,2133,310,2080,310C2026.7,310,1973,310,1920,310C1866.7,310,1813,310,1760,310C1706.7,310,1653,310,1600,310C1546.7,310,1493,310,1440,310C1386.7,310,1333,310,1280,310C1226.7,310,1173,310,1120,310C1066.7,310,1013,310,960,310C906.7,310,853,310,800,310C746.7,310,693,310,640,310C586.7,310,533,310,480,310C426.7,310,373,310,320,310C266.7,310,213,310,160,310C106.7,310,53,310,27,310L0,310Z"/></svg>